<svg width="16" height="16" viewBox="0 0 16 16" fill="none" xmlns="http://www.w3.org/2000/svg">
<path d="M12 2.66699C12.5304 2.66699 13.0391 2.87771 13.4142 3.25278C13.7893 3.62785 14 4.13656 14 4.66699V10.0003C14 10.5308 13.7893 11.0395 13.4142 11.4145C13.0391 11.7896 12.5304 12.0003 12 12.0003H8.66667L5.33333 14.0003V12.0003H4C3.46957 12.0003 2.96086 11.7896 2.58579 11.4145C2.21071 11.0395 2 10.5308 2 10.0003V4.66699C2 4.13656 2.21071 3.62785 2.58579 3.25278C2.96086 2.87771 3.46957 2.66699 4 2.66699H12Z" stroke="black" stroke-width="1.4" stroke-linecap="round" stroke-linejoin="round"/>
<path d="M6.33203 6H6.3387" stroke="black" stroke-width="1.4" stroke-linecap="round" stroke-linejoin="round"/>
<path d="M9.66797 6H9.67464" stroke="black" stroke-width="1.4" stroke-linecap="round" stroke-linejoin="round"/>
<path d="M6.33203 8.66699C6.54928 8.88872 6.8086 9.06488 7.09478 9.18513C7.38097 9.30539 7.68827 9.36733 7.9987 9.36733C8.30912 9.36733 8.61643 9.30539 8.90261 9.18513C9.1888 9.06488 9.44811 8.88872 9.66536 8.66699" stroke="black" stroke-width="1.4" stroke-linecap="round" stroke-linejoin="round"/>
</svg>
