<svg width="20" height="20" viewBox="0 0 20 20" fill="none" xmlns="http://www.w3.org/2000/svg">
<path d="M14.0418 8.85309L15.8232 16.9686C15.9222 17.4634 15.7242 17.8593 15.3284 18.1562L14.8335 18.3541C14.3387 18.5521 13.8438 18.4531 13.5469 18.0572L10.083 12.8119L7.11393 14.7912V17.7603L6.12423 18.75L4.14485 15.7809L1.17578 13.8015L2.16547 12.8119H5.13454L7.11393 9.84278L1.86856 6.37887C1.47269 6.08196 1.37372 5.58711 1.57166 5.09227L1.86856 4.59742C2.0665 4.20155 2.46238 4.00361 2.95722 4.10258L11.0727 5.88402L14.5366 2.4201C16.0211 0.935567 18.0005 0.440722 18.9902 0.935567C19.4851 1.92526 18.9902 3.90464 17.5057 5.38918L14.0418 8.85309Z" stroke="#6E6E6A" stroke-width="1.5" stroke-linecap="round"/>
</svg>
