<svg width="19" height="19" viewBox="0 0 19 19" fill="none" xmlns="http://www.w3.org/2000/svg">
<path d="M6.65868 6.58346C6.85461 6.02647 7.24135 5.5568 7.75039 5.25763C8.25943 4.95846 8.85793 4.8491 9.43988 4.94892C10.0218 5.04874 10.5497 5.3513 10.9299 5.803C11.3102 6.25471 11.5183 6.82641 11.5174 7.41686C11.5174 9.08366 9.0172 9.91706 9.0172 9.91706M9.084 13.251H9.09233M17.418 9.084C17.418 13.6867 13.6867 17.418 9.084 17.418C4.48126 17.418 0.75 13.6867 0.75 9.084C0.75 4.48126 4.48126 0.75 9.084 0.75C13.6867 0.75 17.418 4.48126 17.418 9.084Z" stroke="#1A1A19" stroke-width="1.5" stroke-linecap="round"/>
</svg>
